<svg width="93" height="20" viewBox="0 0 93 20" fill="none" xmlns="http://www.w3.org/2000/svg">
<path d="M15.0769 0.846182V11.4616C15.0769 15 13.5385 16.4616 9.84616 16.4616C6.15385 16.4616 4.61539 15 4.61539 11.4616V0.384644H1.07693C0.846156 0.384644 0.615387 0.615413 0.615387 0.846182V11.6154C0.615387 17.5385 4.38462 19.6154 9.84616 19.6154C15.3077 19.6154 19.0769 17.5385 19.0769 11.6154V0.384644H15.5385C15.3077 0.384644 15.0769 0.53849 15.0769 0.846182Z" fill="white"/>
<path d="M66.5385 3.46157C66.8461 3.46157 67 3.38464 67.0769 3.15387L68.0769 0.615413C68.1538 0.461567 68.0769 0.384644 67.9231 0.384644H53.6154C52.3077 0.384644 51.7692 0.769259 51.7692 1.69234V18.1539C51.7692 18.9231 52.1538 19.3077 53.1538 19.3077H66.4615C66.7692 19.3077 66.9231 19.2308 67 19L68 16.4616C68.0769 16.3077 68 16.2308 67.8461 16.2308H55.6923V12.8462C55.6923 11.6923 56.3077 11.1539 58.0769 11.1539H63.3846C63.6923 11.1539 63.8461 11.077 63.9231 10.8462L64.9231 8.38464C65 8.2308 64.9231 8.15387 64.7692 8.15387H55.7692V3.38464H66.5385V3.46157Z" fill="white"/>
<path fill-rule="evenodd" clip-rule="evenodd" d="M41.3846 9.30774C42.9231 8.46155 43.5385 7 43.5385 5.15393C43.5385 1 40.1539 0.384644 36.6154 0.384644H28.5385C27.2308 0.384644 26.6923 0.769287 26.6923 1.69238V18.1539C26.6923 18.9231 27.0769 19.3077 28.0769 19.3077H38C41.7693 19.3077 44.3846 17.8462 44.3846 14.0769C44.4615 11.7693 43.5385 9.84619 41.3846 9.30774ZM30.6923 3.38464H36.9231C39 3.38464 39.6154 4.15393 39.6154 5.76929C39.6154 7.38464 39 8.15393 36.9231 8.15393H30.6923V3.38464ZM30.6923 16.2307H37.6923C39.9231 16.2307 40.5385 15.4615 40.5385 13.6923C40.5385 11.9231 39.9231 11.0769 37.6923 11.0769H33.0769C31.3077 11.0769 30.6923 11.6154 30.6923 12.7692V16.2307Z" fill="white"/>
<path fill-rule="evenodd" clip-rule="evenodd" d="M88.6154 11.6924L92.8462 19C92.9231 19.0769 92.9231 19.3077 92.7692 19.3077H89.1538C88.8462 19.3077 88.7692 19.2308 88.6154 19L84.7692 12.0769H81.3077C79.5385 12.0769 78.9231 12.6154 78.9231 13.7693V19.3077H75.4615C75.2308 19.3077 75 19.0769 75 18.8462V1.69238C75 0.769287 75.5385 0.384644 76.8462 0.384644H84.9231C89.6154 0.384644 92.4615 1.61536 92.4615 6.23083C92.4615 9.76929 90.6923 11.1539 88.6154 11.6924ZM78.8462 9.15393H85.4615C87.9231 9.15393 88.4615 8.23083 88.4615 6.23083C88.4615 4.30774 87.9231 3.38464 85.4615 3.38464H78.8462V9.15393Z" fill="white"/>
</svg>
